<svg width="119" height="32" viewBox="0 0 119 32" fill="none" xmlns="http://www.w3.org/2000/svg">
<g clip-path="url(#clip0_7862_1281)">
<path fill-rule="evenodd" clip-rule="evenodd" d="M7.89744 5.35897C3.14103 5.80769 2.5641 8.97436 1.73077 10.4744C1.20513 10.0513 0.935897 9.94872 0.403846 9.52564C0.903312 8.18036 1.63443 6.93289 2.5641 5.83974C4.4359 3.80128 6.51923 4.48718 8.73718 3.35256C10.0962 2.48077 10.4423 1.24359 10.8974 0C11.4092 0.0929403 11.8986 0.282188 12.3397 0.557692C11.9167 2.71154 10.5256 4.83974 7.89744 5.35897ZM9.6859 7.79487C12.3205 7.27564 13.7051 5.14744 14.1346 2.99359C13.6935 2.71809 13.204 2.52884 12.6923 2.4359C12.2372 3.67949 11.891 4.91667 10.5321 5.76923C8.3141 6.8718 6.23077 6.21795 4.34615 8.25641C3.42104 9.35053 2.69429 10.5979 2.19872 11.9423C2.73077 12.3654 3 12.4679 3.52564 12.891C4.35897 11.359 4.9359 8.22436 9.6859 7.76282V7.79487ZM11.4359 10.1923C14.0641 9.67308 15.4551 7.54487 15.8846 5.38462C15.4389 5.11502 14.9481 4.92826 14.4359 4.83333C13.9872 6.07692 13.6346 7.30769 12.2756 8.1859C10.0577 9.28205 7.98077 8.62821 6.08974 10.6667C5.1643 11.7618 4.43949 13.0118 3.94872 14.359C4.47436 14.7756 4.74359 14.8782 5.27564 15.3013C6.10897 13.7692 6.6859 10.6346 11.4359 10.1731V10.1923ZM13.3141 12.391C15.9423 11.8718 17.3333 9.74359 17.7628 7.58333C17.3158 7.32047 16.825 7.14025 16.3141 7.05128C15.859 8.29487 15.5128 9.52564 14.1538 10.4038C11.9359 11.5064 9.85256 10.8526 7.96795 12.891C7.04249 13.9838 6.31765 15.2316 5.82692 16.5769C6.35256 16.9936 6.62179 17.1026 7.14744 17.5192C7.98077 15.9872 8.55769 12.8526 13.3141 12.391ZM7.55128 19.8718C2.79487 20.2436 2.16667 23.3654 1.30769 24.8846C0.788462 24.4551 0.519231 24.359 0 23.9167C0.512997 22.5812 1.25728 21.3465 2.19872 20.2692C4.1218 18.2564 6.19231 18.9423 8.42308 17.8782C9.79487 17.0256 10.1667 15.7949 10.6346 14.5577C11.1467 14.6598 11.6357 14.8553 12.0769 15.1346C11.6154 17.3077 10.1923 19.391 7.55128 19.8718ZM9.30769 22.3333C4.55128 22.7051 3.92308 25.8333 3.0641 27.3462C2.54487 26.9167 2.27564 26.8141 1.78205 26.3846C2.29546 25.0474 3.03966 23.8106 3.98077 22.7308C5.90385 20.7179 7.97436 21.4103 10.2051 20.3397C11.5769 19.4872 11.9487 18.2628 12.4167 17.0192C12.9292 17.1234 13.4181 17.3212 13.859 17.6026C13.391 19.75 11.9679 21.859 9.33333 22.3333H9.30769ZM11.0192 24.7564C13.6538 24.2756 15.0769 22.1923 15.5064 20.0192C15.0675 19.7399 14.5807 19.5443 14.0705 19.4423C13.5962 20.6795 13.2308 21.9103 11.859 22.7628C9.62179 23.8269 7.55128 23.141 5.63462 25.1538C4.69318 26.2311 3.94889 27.4658 3.4359 28.8013C3.95513 29.2308 4.22436 29.3397 4.71795 29.7692C5.57692 28.25 6.20513 25.1282 10.9615 24.7564H11.0192ZM12.859 26.9872C15.4936 26.5064 16.9167 24.4231 17.3846 22.25C16.9434 21.9707 16.4544 21.7751 15.9423 21.6731C15.4744 22.9103 15.1026 24.1346 13.7308 24.9936C11.5 26.0577 9.42949 25.3718 7.50641 27.3782C6.5653 28.4581 5.8211 29.6948 5.30769 31.0321C5.82692 31.4615 6.09615 31.5705 6.58974 32C7.44872 30.4808 8.07692 27.359 12.8333 26.9872H12.859ZM31.0321 5.89103C31.0316 6.17952 30.9906 6.46652 30.9103 6.74359C30.8348 7.00595 30.7226 7.2563 30.5769 7.48718C30.4293 7.71057 30.2501 7.91138 30.0449 8.08333C29.8317 8.25964 29.5942 8.40429 29.3397 8.51282C29.7371 8.58576 30.0959 8.79694 30.3526 9.10897C30.4823 9.27308 30.5802 9.46008 30.641 9.66026C30.7216 9.88461 30.7649 10.1206 30.7692 10.359C30.7674 10.6229 30.7329 10.8856 30.6667 11.141C30.5285 11.6797 30.2446 12.1698 29.8462 12.5577C29.6345 12.7696 29.3925 12.9489 29.1282 13.0897C28.839 13.2553 28.5284 13.3804 28.2051 13.4615C27.8182 13.549 27.4223 13.5898 27.0256 13.5833H24.5256C24.4606 13.5892 24.3951 13.5814 24.3333 13.5604C24.2714 13.5394 24.2147 13.5058 24.1667 13.4615C24.1232 13.4074 24.0949 13.3426 24.0848 13.2739C24.0746 13.2051 24.083 13.1349 24.109 13.0705L25.7692 4.55128C25.7783 4.47184 25.8034 4.39507 25.8431 4.32565C25.8828 4.25622 25.9362 4.19559 26 4.14744C26.1142 4.07837 26.2447 4.04078 26.3782 4.03846H28.3974C28.7984 4.0295 29.1989 4.07041 29.5897 4.16026C29.8747 4.21903 30.1463 4.32986 30.391 4.48718C30.5985 4.63739 30.764 4.83821 30.8718 5.07051C30.9811 5.32107 31.0357 5.59205 31.0321 5.86538V5.89103ZM29.7115 6.1218C29.7138 5.97293 29.6877 5.825 29.6346 5.6859C29.5761 5.55642 29.4884 5.4423 29.3782 5.35256C29.2425 5.25573 29.0905 5.18408 28.9295 5.14103C28.6925 5.08345 28.4489 5.05759 28.2051 5.0641H26.9231L26.2821 8.15385H27.6859C28.0104 8.16857 28.3336 8.1048 28.6282 7.96795C28.8606 7.84624 29.0657 7.67827 29.2308 7.47436C29.3827 7.28253 29.4998 7.06558 29.5769 6.83333C29.6465 6.60904 29.6832 6.37585 29.6859 6.14103L29.7115 6.1218ZM29.4295 10.4487C29.4386 10.2685 29.405 10.0886 29.3315 9.92374C29.2579 9.75889 29.1466 9.61372 29.0064 9.5C28.6256 9.25492 28.1763 9.13811 27.7244 9.16667H26.0962L25.4551 12.5321H27.1795C27.5296 12.545 27.8787 12.4861 28.2051 12.359C28.4479 12.2502 28.666 12.0932 28.8462 11.8974C29.0265 11.7138 29.1682 11.4958 29.2628 11.2564C29.3598 11.0026 29.4098 10.7333 29.4103 10.4615L29.4295 10.4487ZM39.0064 13.1218L37.609 4.26282C37.597 4.21616 37.5798 4.17101 37.5577 4.12821C37.5264 4.08586 37.4809 4.05625 37.4295 4.04487C37.3477 4.02253 37.264 4.00751 37.1795 4H36.4487C36.3686 4.00885 36.2893 4.02385 36.2115 4.04487C36.1541 4.05928 36.1012 4.08794 36.0577 4.12821C36.0167 4.16675 35.9802 4.20976 35.9487 4.25641L31.0833 13.1154C31.0389 13.1986 31.0045 13.2869 30.9808 13.3782C30.9725 13.4044 30.971 13.4324 30.9766 13.4593C30.9823 13.4863 30.9947 13.5113 31.0128 13.5321C31.062 13.5726 31.1224 13.5972 31.1859 13.6026H31.5321H31.8654C31.9397 13.597 32.0129 13.582 32.0833 13.5577C32.1317 13.543 32.1758 13.5166 32.2115 13.4808C32.2458 13.445 32.274 13.4039 32.2949 13.359L33.5128 11.0641H37.4167L37.7564 13.3846C37.7614 13.4232 37.7745 13.4604 37.7949 13.4936C37.8172 13.5254 37.8484 13.5499 37.8846 13.5641C37.9418 13.5871 38.0025 13.6001 38.0641 13.6026H38.3397H38.7308C38.8053 13.5977 38.8776 13.5758 38.9423 13.5385C38.9646 13.5191 38.9829 13.4956 38.9961 13.4692C39.0093 13.4428 39.0172 13.4141 39.0192 13.3846C39.0343 13.2977 39.0343 13.2088 39.0192 13.1218H39.0064ZM36.5705 5.30769L37.2692 10.0577H34.0641L36.5385 5.30769H36.5705ZM47.641 13.0513C47.6256 13.2087 47.5525 13.3548 47.4359 13.4615C47.3816 13.5029 47.321 13.5354 47.2564 13.5577C47.1943 13.5781 47.1295 13.5889 47.0641 13.5897H46.5962C46.4898 13.5902 46.384 13.5751 46.2821 13.5449C46.1935 13.5136 46.1142 13.4607 46.0513 13.391C45.9792 13.309 45.9208 13.2159 45.8782 13.1154C45.8269 13 45.7692 12.859 45.7115 12.6923L43.9551 7.60256C43.8333 7.24359 43.718 6.87821 43.5962 6.51923C43.4744 6.16026 43.3654 5.79487 43.2564 5.42949C43.1923 5.83333 43.1282 6.23077 43.0513 6.63462C42.9744 7.03846 42.9038 7.42949 42.8269 7.82692L41.7436 13.3782C41.728 13.4138 41.7009 13.4432 41.6667 13.4615C41.637 13.497 41.5964 13.5218 41.5513 13.5321C41.489 13.5553 41.4246 13.5725 41.359 13.5833H41.0705H40.7949C40.7351 13.5745 40.6768 13.5572 40.6218 13.5321C40.6045 13.5267 40.5887 13.5176 40.5754 13.5055C40.5621 13.4933 40.5517 13.4783 40.5449 13.4615C40.532 13.4286 40.532 13.392 40.5449 13.359L42.2436 4.58333C42.2658 4.4157 42.3534 4.26363 42.4872 4.16026C42.5968 4.08476 42.7259 4.04247 42.859 4.03846H43.4295C43.5313 4.03654 43.6328 4.0495 43.7308 4.07692C43.8173 4.0948 43.8958 4.1397 43.9551 4.20513C44.0258 4.2773 44.0824 4.3621 44.1218 4.45513C44.1816 4.58058 44.2351 4.70894 44.2821 4.83974L46.0577 9.96795L46.3846 10.9231C46.4936 11.2436 46.6026 11.5641 46.7051 11.891C46.7692 11.4872 46.8462 11.0705 46.9231 10.609C47 10.1474 47.0833 9.76282 47.1603 9.35897L48.1859 4.19231C48.1926 4.15572 48.2105 4.12212 48.2372 4.09615C48.2642 4.06496 48.2999 4.04263 48.3397 4.03205C48.3982 4.00512 48.4613 3.98988 48.5256 3.98718C48.6195 3.97967 48.7138 3.97967 48.8077 3.98718C48.9016 3.98001 48.9959 3.98001 49.0897 3.98718C49.1502 3.98809 49.2095 4.00348 49.2628 4.03205C49.2805 4.03624 49.297 4.04412 49.3114 4.05517C49.3257 4.06622 49.3376 4.08019 49.3462 4.09615C49.3564 4.12738 49.3564 4.16108 49.3462 4.19231L47.641 13.0513ZM57.7949 4.23718C57.7904 4.31173 57.7636 4.38321 57.718 4.44231C57.6471 4.53702 57.5677 4.625 57.4808 4.70513L53.5897 8.55128L56.0577 12.9936L56.1474 13.1923C56.1519 13.2392 56.1519 13.2864 56.1474 13.3333C56.1575 13.3711 56.1575 13.4109 56.1474 13.4487C56.1266 13.4873 56.0924 13.5169 56.0513 13.5321C55.9876 13.5577 55.9208 13.575 55.8526 13.5833H55.5256H55.1987L55 13.5449C54.9553 13.53 54.9155 13.5035 54.8846 13.4679C54.8582 13.4325 54.8366 13.3937 54.8205 13.3526L52.2564 8.59615L51.3269 13.359C51.3242 13.3973 51.3084 13.4335 51.2821 13.4615C51.251 13.4987 51.2079 13.5236 51.1603 13.5321C51.094 13.5567 51.0252 13.5739 50.9551 13.5833H50.6603H50.3654C50.3015 13.5744 50.239 13.5571 50.1795 13.5321C50.1606 13.5269 50.1429 13.5179 50.1275 13.5058C50.1121 13.4937 50.0993 13.4787 50.0897 13.4615C50.0794 13.4281 50.0794 13.3924 50.0897 13.359L51.8846 4.19872C51.8907 4.17211 51.904 4.1477 51.9231 4.12821C51.9553 4.09259 51.9979 4.06794 52.0449 4.05769C52.1117 4.03628 52.1804 4.02126 52.25 4.01282C52.3481 4.00527 52.4467 4.00527 52.5449 4.01282C52.643 4.00527 52.7416 4.00527 52.8397 4.01282C52.9012 4.02004 52.9616 4.03512 53.0192 4.05769C53.0381 4.06289 53.0558 4.07181 53.0712 4.08391C53.0866 4.09602 53.0995 4.11108 53.109 4.12821C53.1187 4.15732 53.1187 4.18883 53.109 4.21795L52.2756 8.46795L56.4103 4.23718C56.446 4.19388 56.4869 4.15513 56.5321 4.12179C56.5822 4.08978 56.636 4.06395 56.6923 4.04487L56.9103 4.00641H57.218C57.3182 3.99853 57.419 3.99853 57.5192 4.00641C57.5807 4.01363 57.6411 4.02871 57.6987 4.05128C57.7381 4.0661 57.7718 4.09303 57.7949 4.12821C57.8022 4.16201 57.8022 4.19697 57.7949 4.23077V4.23718ZM31.5128 18.3013C31.5128 18.3397 31.5128 18.3974 31.5128 18.4808C31.5128 18.5641 31.5128 18.641 31.4808 18.7372C31.4487 18.8333 31.4423 18.9231 31.4167 19.0192C31.3945 19.1114 31.3645 19.2014 31.3269 19.2885C31.2991 19.3603 31.2602 19.4274 31.2115 19.4872C31.196 19.5089 31.1759 19.5271 31.1526 19.5403C31.1294 19.5536 31.1036 19.5617 31.0769 19.5641C30.9794 19.5557 30.8861 19.5201 30.8077 19.4615C30.6987 19.3974 30.5577 19.3269 30.4038 19.25C30.2224 19.1682 30.0362 19.0976 29.8462 19.0385C29.6108 18.9708 29.3667 18.9384 29.1218 18.9423C28.8816 18.9364 28.6424 18.9755 28.4167 19.0577C28.2353 19.1228 28.071 19.228 27.9359 19.3654C27.815 19.4877 27.7211 19.634 27.6603 19.7949C27.6022 19.9486 27.5718 20.1113 27.5705 20.2756C27.5699 20.4502 27.6188 20.6213 27.7115 20.7692C27.8153 20.9194 27.9431 21.0515 28.0897 21.1603C28.2583 21.2925 28.4361 21.4124 28.6218 21.5192L29.2308 21.8718C29.4359 22 29.641 22.1346 29.8718 22.2821C30.0689 22.4312 30.2476 22.6033 30.4038 22.7949C30.5628 22.9874 30.6904 23.2037 30.7821 23.4359C30.8592 23.7372 30.8809 24.0499 30.8462 24.359C30.8513 24.8284 30.7505 25.2929 30.5513 25.7179C30.3535 26.1377 30.067 26.5095 29.7115 26.8077C29.334 27.1283 28.8989 27.3741 28.4295 27.5321C27.8804 27.7175 27.3039 27.8085 26.7244 27.8013C26.4104 27.8045 26.0969 27.7766 25.7885 27.718C25.5199 27.6651 25.2562 27.59 25 27.4936C24.8082 27.4291 24.6235 27.3454 24.4487 27.2436C24.3252 27.1809 24.2126 27.0987 24.1154 27C24.0342 26.9013 23.9951 26.7747 24.0064 26.6474C24.0014 26.5856 24.0014 26.5234 24.0064 26.4615C24.0064 26.3782 24.0064 26.2885 24.0513 26.1923C24.0962 26.0962 24.0897 25.9936 24.1154 25.891C24.1395 25.7974 24.1695 25.7053 24.2051 25.6154C24.2361 25.5417 24.2771 25.4727 24.3269 25.4103C24.3432 25.3877 24.3643 25.3691 24.3887 25.3558C24.4131 25.3425 24.4402 25.3348 24.4679 25.3333C24.5824 25.3418 24.6918 25.3842 24.7821 25.4551C24.9292 25.5505 25.0811 25.6382 25.2372 25.7179C25.4421 25.8291 25.6566 25.9213 25.8782 25.9936C26.1696 26.0788 26.4721 26.1199 26.7756 26.1154C27.0493 26.1203 27.322 26.0813 27.5833 26C27.7964 25.9312 27.9943 25.8224 28.1667 25.6795C28.3145 25.5514 28.4345 25.3943 28.5192 25.2179C28.6024 25.0326 28.644 24.8313 28.641 24.6282C28.6432 24.4514 28.5942 24.2778 28.5 24.1282C28.3989 23.9743 28.2733 23.8378 28.1282 23.7244C27.9653 23.5944 27.7916 23.4786 27.609 23.3782C27.4167 23.2692 27.2179 23.1538 27.0128 23.0256C26.8073 22.9014 26.6083 22.7666 26.4167 22.6218C26.2221 22.4765 26.0476 22.3062 25.8974 22.1154C25.7398 21.909 25.6145 21.6799 25.5256 21.4359C25.4281 21.1513 25.3804 20.8521 25.3846 20.5513C25.3815 20.1082 25.4779 19.6701 25.6667 19.2692C25.8515 18.8792 26.1157 18.5321 26.4423 18.25C26.7969 17.9648 27.2011 17.7475 27.6346 17.609C28.1248 17.4479 28.6379 17.3678 29.1538 17.3718C29.4029 17.3711 29.6515 17.3904 29.8974 17.4295C30.114 17.4652 30.3281 17.5145 30.5385 17.5769C30.7092 17.6294 30.8745 17.6981 31.0321 17.7821C31.1327 17.8308 31.2273 17.891 31.3141 17.9615C31.3606 18.0063 31.3995 18.0583 31.4295 18.1154C31.4412 18.1854 31.4412 18.2569 31.4295 18.3269L31.5128 18.3013ZM40.7821 23.8782C40.6695 24.4709 40.464 25.042 40.1731 25.5705C39.9022 26.0465 39.5381 26.4629 39.1026 26.7949C38.6909 27.1357 38.2191 27.3966 37.7115 27.5641C37.1391 27.7315 36.5451 27.8135 35.9487 27.8077C35.3511 27.8186 34.7557 27.732 34.1859 27.5513C33.7355 27.4132 33.3318 27.1537 33.0192 26.8013C32.7224 26.4442 32.5314 26.0112 32.4679 25.5513C32.3875 24.9724 32.4136 24.3836 32.5449 23.8141L33.7372 17.8333C33.7512 17.7809 33.7776 17.7325 33.8141 17.6923C33.8686 17.6426 33.9348 17.6074 34.0064 17.5897C34.1132 17.5598 34.2227 17.5405 34.3333 17.5321C34.5019 17.5206 34.6711 17.5206 34.8397 17.5321C35.0019 17.5207 35.1647 17.5207 35.3269 17.5321C35.4293 17.5395 35.5304 17.5589 35.6282 17.5897C35.6851 17.6078 35.7346 17.6438 35.7692 17.6923C35.7854 17.7379 35.7854 17.7877 35.7692 17.8333L34.6154 23.7821C34.5359 24.1221 34.51 24.4725 34.5385 24.8205C34.5666 25.0796 34.6568 25.328 34.8013 25.5449C34.9452 25.7325 35.1382 25.8767 35.359 25.9615C35.6292 26.063 35.9166 26.1109 36.2051 26.1026C36.5173 26.1052 36.8276 26.0531 37.1218 25.9487C37.399 25.8502 37.6539 25.6977 37.8718 25.5C38.0984 25.2977 38.2872 25.0568 38.4295 24.7885C38.5863 24.4857 38.6986 24.1618 38.7628 23.8269L39.9744 17.8013C39.9884 17.7488 40.0147 17.7004 40.0513 17.6603C40.1019 17.612 40.1635 17.5768 40.2308 17.5577C40.3376 17.5278 40.4471 17.5085 40.5577 17.5C40.7242 17.4887 40.8912 17.4887 41.0577 17.5C41.2178 17.4886 41.3784 17.4886 41.5385 17.5C41.6385 17.5087 41.7374 17.528 41.8333 17.5577C41.8902 17.5757 41.9397 17.6117 41.9744 17.6603C41.9839 17.6825 41.9888 17.7065 41.9888 17.7308C41.9888 17.755 41.9839 17.779 41.9744 17.8013L40.7564 23.8782H40.7821ZM54.0321 27.3269C54.0124 27.3758 53.9888 27.4229 53.9615 27.4679C53.9188 27.5164 53.8632 27.552 53.8013 27.5705C53.7011 27.6007 53.5979 27.62 53.4936 27.6282C53.3654 27.6282 53.2051 27.6282 53.0064 27.6282C52.8077 27.6282 52.6474 27.6282 52.5192 27.6282C52.4212 27.6201 52.3244 27.6007 52.2308 27.5705C52.1772 27.5527 52.1317 27.5163 52.1026 27.4679C52.0897 27.4218 52.0897 27.3731 52.1026 27.3269L53.7372 19.1282L49.1154 27.3205C49.0791 27.3879 49.0279 27.446 48.9657 27.4904C48.9035 27.5349 48.8319 27.5645 48.7564 27.5769C48.5057 27.6299 48.2497 27.6536 47.9936 27.6474C47.7471 27.6608 47.5 27.6326 47.2628 27.5641C47.1218 27.5064 47.0449 27.4295 47.0385 27.3397L45.8526 19.1218L44.2308 27.3269C44.2165 27.378 44.1925 27.4259 44.1603 27.4679C44.1175 27.5164 44.062 27.552 44 27.5705C43.8998 27.6007 43.7966 27.62 43.6923 27.6282C43.5641 27.6282 43.4039 27.6282 43.2051 27.6282C43.0064 27.6282 42.8462 27.6282 42.7244 27.6282C42.6263 27.6201 42.5295 27.6007 42.4359 27.5705C42.3814 27.5543 42.3354 27.5175 42.3077 27.4679C42.2982 27.4457 42.2933 27.4217 42.2933 27.3974C42.2933 27.3732 42.2982 27.3492 42.3077 27.3269L44.1026 18.3526C44.1254 18.2326 44.1642 18.1161 44.218 18.0064C44.2684 17.9062 44.3381 17.8168 44.4231 17.7436C44.5049 17.6745 44.5982 17.6202 44.6987 17.5833C44.8076 17.5439 44.9227 17.5244 45.0385 17.5256H46.3205C46.5169 17.5215 46.713 17.5431 46.9038 17.5897C47.0495 17.6202 47.1844 17.6888 47.2949 17.7885C47.4057 17.8851 47.4896 18.0088 47.5385 18.1474C47.5957 18.3264 47.6322 18.5114 47.6474 18.6987L48.6218 24.6923H48.6603L52.1154 18.6987C52.2096 18.5175 52.3145 18.3419 52.4295 18.1731C52.5228 18.0321 52.6399 17.9085 52.7756 17.8077C52.9011 17.7096 53.045 17.6377 53.1987 17.5962C53.3783 17.5469 53.5638 17.5232 53.75 17.5256H55.1282C55.2441 17.5227 55.3595 17.5423 55.4679 17.5833C55.5536 17.6163 55.6289 17.6716 55.6859 17.7436C55.7441 17.8174 55.7797 17.9064 55.7885 18C55.8041 18.1149 55.8041 18.2313 55.7885 18.3462L54 27.3205L54.0321 27.3269ZM63.25 18.3013C63.2521 18.2289 63.239 18.1568 63.2115 18.0897C63.1864 18.0314 63.1492 17.979 63.1026 17.9359C63.0158 17.8654 62.9211 17.8052 62.8205 17.7564C62.6624 17.6736 62.4972 17.6049 62.3269 17.5513C62.1165 17.4888 61.9024 17.4396 61.6859 17.4038C61.44 17.3648 61.1913 17.3455 60.9423 17.3462C60.4243 17.3422 59.909 17.4223 59.4167 17.5833C58.9852 17.7219 58.5831 17.9392 58.2308 18.2244C57.9023 18.5047 57.6378 18.8523 57.4551 19.2436C57.2664 19.6445 57.17 20.0826 57.1731 20.5256C57.1689 20.8264 57.2166 21.1257 57.3141 21.4103C57.4878 21.8847 57.7978 22.2973 58.2051 22.5962C58.3957 22.7424 58.5948 22.8773 58.8013 23C59 23.1282 59.1987 23.2436 59.3974 23.3526C59.5791 23.4545 59.7527 23.5702 59.9167 23.6987C60.0618 23.8122 60.1873 23.9486 60.2885 24.1026C60.3827 24.2521 60.4317 24.4258 60.4295 24.6026C60.4304 24.8062 60.3867 25.0075 60.3013 25.1923C60.2206 25.3711 60.1 25.529 59.9487 25.6538C59.7797 25.7981 59.5835 25.907 59.3718 25.9744C59.1103 26.0548 58.8377 26.0938 58.5641 26.0897C58.2606 26.0942 57.958 26.0532 57.6667 25.9679C57.4446 25.8968 57.23 25.8045 57.0256 25.6923C56.8688 25.6139 56.7168 25.5262 56.5705 25.4295C56.4803 25.3585 56.3709 25.3161 56.2564 25.3077C56.2286 25.3092 56.2016 25.3168 56.1772 25.3301C56.1528 25.3434 56.1316 25.3621 56.1154 25.3846C56.0655 25.447 56.0245 25.5161 55.9936 25.5897C55.9529 25.6784 55.9207 25.7707 55.8974 25.8654C55.8974 25.9679 55.8526 26.0705 55.8333 26.1667C55.8151 26.2556 55.8023 26.3455 55.7949 26.4359C55.7907 26.4978 55.7907 26.5599 55.7949 26.6218C55.7862 26.7488 55.825 26.8744 55.9038 26.9744C56.0023 27.0716 56.1146 27.1537 56.2372 27.2179C56.4149 27.3185 56.6016 27.4022 56.7949 27.4679C57.3371 27.6556 57.907 27.751 58.4808 27.75C59.0603 27.7573 59.6368 27.6662 60.1859 27.4808C60.6657 27.3244 61.1116 27.0786 61.5 26.7564C61.8555 26.4582 62.142 26.0864 62.3397 25.6667C62.5227 25.2553 62.6146 24.8092 62.609 24.359C62.6154 24.0643 62.5676 23.771 62.4679 23.4936C62.3786 23.2617 62.2531 23.0453 62.0962 22.8526C61.9382 22.6626 61.7598 22.4906 61.5641 22.3397C61.359 22.1923 61.1603 22.0577 60.9231 21.9295L60.2821 21.5769C60.1155 21.4456 59.9571 21.3043 59.8077 21.1538C59.663 21.045 59.5373 20.9129 59.4359 20.7628C59.3404 20.6162 59.2913 20.4442 59.2949 20.2692C59.2937 20.1047 59.3241 19.9415 59.3846 19.7885C59.4455 19.6276 59.5394 19.4813 59.6603 19.359C59.7943 19.2234 59.9561 19.1184 60.1346 19.0513C60.3624 18.9683 60.6038 18.9292 60.8462 18.9359C61.091 18.9324 61.3351 18.9648 61.5705 19.0321C61.7605 19.0912 61.9468 19.1618 62.1282 19.2436L62.5256 19.4551C62.6059 19.5148 62.7015 19.5504 62.8013 19.5577C62.8279 19.5553 62.8538 19.5472 62.877 19.5339C62.9002 19.5207 62.9203 19.5025 62.9359 19.4808C62.9822 19.4194 63.021 19.3527 63.0513 19.2821C63.086 19.194 63.116 19.1041 63.141 19.0128C63.141 18.9167 63.1859 18.8205 63.1987 18.7308C63.2115 18.641 63.1987 18.5513 63.2372 18.4744C63.2756 18.3974 63.2372 18.3333 63.2372 18.2949L63.25 18.3013ZM71.3974 17.8205C71.3974 17.8526 71.3974 17.9038 71.3974 17.9872C71.3974 18.0705 71.3974 18.1474 71.359 18.2436C71.3462 18.3457 71.3247 18.4464 71.2949 18.5449C71.2715 18.6437 71.2394 18.7403 71.1987 18.8333C71.1645 18.9101 71.1192 18.9814 71.0641 19.0449C71.0418 19.0711 71.0143 19.0926 70.9835 19.108C70.9527 19.1235 70.919 19.1325 70.8846 19.1346H67.3077L66.8141 21.5897H69.8718C69.902 21.5874 69.9323 21.5933 69.9594 21.6068C69.9865 21.6204 70.0094 21.6411 70.0256 21.6667C70.0604 21.7338 70.0759 21.8092 70.0705 21.8846C70.0756 21.9401 70.0756 21.9958 70.0705 22.0513C70.0705 22.1218 70.0705 22.2115 70.0705 22.3077C70.0553 22.4051 70.0339 22.5015 70.0064 22.5962C69.9831 22.6909 69.9509 22.7832 69.9103 22.8718C69.8753 22.9442 69.8299 23.0112 69.7756 23.0705C69.7303 23.1179 69.6681 23.1455 69.6026 23.1474H66.5513L65.9808 25.9872H69.6282C69.6564 25.986 69.6843 25.9933 69.7083 26.0082C69.7323 26.023 69.7513 26.0447 69.7628 26.0705C69.8005 26.1437 69.8182 26.2255 69.8141 26.3077C69.8141 26.3462 69.8141 26.4038 69.8141 26.4808C69.8062 26.569 69.7934 26.6568 69.7756 26.7436C69.7756 26.8397 69.7372 26.9359 69.7115 27.0321C69.6872 27.1285 69.6551 27.2229 69.6154 27.3141C69.5827 27.3898 69.5372 27.4592 69.4808 27.5192C69.433 27.567 69.3688 27.5945 69.3013 27.5962H64.2372C64.163 27.6093 64.087 27.6093 64.0128 27.5962C63.9472 27.5748 63.8892 27.5347 63.8462 27.4808C63.799 27.4205 63.7662 27.3504 63.75 27.2756C63.7313 27.1804 63.7313 27.0824 63.75 26.9872L65.5 18.1987C65.5265 18.0181 65.6179 17.8534 65.7572 17.7354C65.8964 17.6174 66.0739 17.5542 66.2564 17.5577H71.2628C71.3974 17.5577 71.4615 17.6603 71.4615 17.859L71.3974 17.8205ZM77.1026 26.218C77.1026 26.2564 77.1026 26.3141 77.1026 26.3974C77.1026 26.4808 77.1026 26.5705 77.0641 26.6731C77.0256 26.7756 77.0192 26.8782 76.9936 26.9872C76.9652 27.0895 76.931 27.1901 76.891 27.2885C76.8586 27.3715 76.8108 27.4476 76.75 27.5128C76.7294 27.539 76.7031 27.5601 76.6731 27.5746C76.6431 27.589 76.6102 27.5964 76.5769 27.5962H71.9551C71.8788 27.6101 71.8006 27.6101 71.7244 27.5962C71.6577 27.5732 71.5981 27.5335 71.5513 27.4808C71.5038 27.4215 71.4728 27.3507 71.4615 27.2756C71.4425 27.1804 71.4425 27.0824 71.4615 26.9872L73.2949 17.8269C73.3025 17.7735 73.3273 17.7241 73.3654 17.6859C73.4199 17.6362 73.486 17.6009 73.5577 17.5833C73.6646 17.554 73.7741 17.5347 73.8846 17.5256C74.0192 17.5256 74.1923 17.5256 74.391 17.5256C74.5897 17.5256 74.75 17.5256 74.8782 17.5256C74.9805 17.5331 75.0816 17.5525 75.1795 17.5833C75.2389 17.5996 75.291 17.6358 75.3269 17.6859C75.3401 17.732 75.3401 17.7808 75.3269 17.8269L73.7179 25.9103H76.9231C76.954 25.9077 76.9851 25.9143 77.0124 25.9291C77.0397 25.9439 77.0621 25.9663 77.0769 25.9936C77.1049 26.065 77.1179 26.1413 77.1154 26.218H77.1026ZM86.3205 19.5769C86.3216 19.8702 86.2784 20.162 86.1923 20.4423C86.1077 20.7099 85.9823 20.9629 85.8205 21.1923C85.4769 21.6588 85.0013 22.0116 84.4551 22.2051C84.6795 22.2413 84.8962 22.315 85.0962 22.4231C85.2826 22.5229 85.4481 22.6579 85.5833 22.8205C85.7253 22.9901 85.832 23.1862 85.8974 23.3974C85.9776 23.637 86.0166 23.8884 86.0128 24.141C86.009 24.4027 85.9746 24.663 85.9103 24.9167C85.8408 25.1911 85.7329 25.4544 85.5898 25.6987C85.4358 25.9668 85.246 26.2127 85.0256 26.4295C84.7773 26.6711 84.4943 26.8742 84.1859 27.0321C83.8263 27.2171 83.4452 27.3571 83.0513 27.4487C82.5581 27.5521 82.0552 27.6015 81.5513 27.5962H78.75C78.5819 27.6075 78.4161 27.5522 78.2885 27.4423C78.2373 27.3733 78.2041 27.2926 78.1918 27.2076C78.1795 27.1226 78.1885 27.0358 78.2179 26.9551L79.9679 18.1667C79.9932 17.9729 80.0919 17.7962 80.2436 17.6731C80.3896 17.5699 80.5648 17.516 80.7436 17.5192H83.1731C83.6357 17.5135 84.0976 17.5564 84.5513 17.6474C84.8988 17.7117 85.2314 17.8399 85.5321 18.0256C85.7845 18.1821 85.9904 18.4035 86.1282 18.6667C86.2693 18.9513 86.3397 19.2657 86.3333 19.5833L86.3205 19.5769ZM84.2115 19.9615C84.2146 19.8292 84.1883 19.6979 84.1346 19.5769C84.0821 19.4654 84.0028 19.3685 83.9038 19.2949C83.7842 19.2099 83.6493 19.149 83.5064 19.1154C83.3088 19.0703 83.1065 19.0488 82.9038 19.0513H81.7885L81.2692 21.6667H82.4167C82.7051 21.6769 82.9921 21.6222 83.2564 21.5064C83.4676 21.4141 83.6542 21.2736 83.8013 21.0962C83.9446 20.9348 84.0517 20.7446 84.1154 20.5385C84.1774 20.3524 84.2098 20.1577 84.2115 19.9615ZM83.8654 24.2436C83.8704 24.0921 83.8393 23.9416 83.7747 23.8045C83.71 23.6674 83.6137 23.5476 83.4936 23.4551C83.1437 23.2355 82.7324 23.1343 82.3205 23.1667H80.9615L80.391 26.0385H81.8333C82.1506 26.0453 82.4662 25.9909 82.7628 25.8782C83.0027 25.7906 83.2212 25.6529 83.4038 25.4744C83.5644 25.3132 83.687 25.1183 83.7628 24.9038C83.8388 24.6984 83.88 24.4818 83.8846 24.2628L83.8654 24.2436ZM95.2372 26.8077L93.9551 17.8782C93.9493 17.7958 93.9275 17.7152 93.891 17.641C93.8435 17.5775 93.7756 17.5323 93.6987 17.5128C93.562 17.4814 93.4223 17.4642 93.2821 17.4615C93.109 17.4615 92.8654 17.4615 92.5641 17.4615C92.2628 17.4615 92.0833 17.4615 91.9231 17.4615C91.7913 17.4644 91.6601 17.4816 91.5321 17.5128C91.4456 17.5355 91.3662 17.5796 91.3013 17.641C91.2429 17.7061 91.1914 17.777 91.1474 17.8526L86.2628 26.8269C86.1858 26.9671 86.1194 27.1128 86.0641 27.2628C86.0443 27.3027 86.0341 27.3465 86.0341 27.391C86.0341 27.4355 86.0443 27.4794 86.0641 27.5192C86.1338 27.589 86.2283 27.6282 86.3269 27.6282C86.5148 27.6405 86.7032 27.6405 86.891 27.6282C87.1175 27.6282 87.3034 27.6282 87.4487 27.6282C87.5678 27.6249 87.6862 27.6077 87.8013 27.5769C87.8774 27.5589 87.9466 27.5187 88 27.4615C88.0528 27.4096 88.0962 27.3488 88.1282 27.2821L89.1667 25.3013H92.9487L93.2179 27.3269C93.2224 27.3876 93.2399 27.4467 93.2692 27.5C93.3038 27.546 93.3539 27.5779 93.4103 27.5897C93.5045 27.615 93.6012 27.63 93.6987 27.6346H94.1923C94.4701 27.6346 94.6838 27.6346 94.8333 27.6346C94.9556 27.6308 95.0748 27.5954 95.1795 27.5321C95.2136 27.5016 95.2405 27.464 95.2583 27.4218C95.276 27.3797 95.2841 27.3341 95.2821 27.2885C95.2814 27.1383 95.2707 26.9884 95.25 26.8397L95.2372 26.8077ZM92.1731 19.4231L92.75 23.6987H89.9231L92.1667 19.4231H92.1731ZM104.756 19.5513C104.758 19.8446 104.714 20.1363 104.628 20.4167C104.544 20.6843 104.418 20.9373 104.256 21.1667C103.913 21.6332 103.437 21.986 102.891 22.1795C103.115 22.2157 103.332 22.2893 103.532 22.3974C103.719 22.4973 103.884 22.6322 104.019 22.7949C104.161 22.9644 104.268 23.1606 104.333 23.3718C104.414 23.6114 104.453 23.8628 104.449 24.1154C104.445 24.377 104.41 24.6374 104.346 24.891C104.277 25.1655 104.169 25.4288 104.026 25.6731C103.87 25.9398 103.68 26.1854 103.462 26.4038C103.213 26.6454 102.93 26.8485 102.622 27.0064C102.262 27.1915 101.881 27.3314 101.487 27.4231C100.994 27.5261 100.491 27.5755 99.9872 27.5705H97.1859C97.0178 27.5819 96.852 27.5266 96.7244 27.4167C96.6732 27.3476 96.64 27.267 96.6277 27.182C96.6154 27.0969 96.6244 27.0102 96.6538 26.9295L98.4038 18.141C98.4291 17.9473 98.5278 17.7706 98.6795 17.6474C98.8255 17.5442 99.0007 17.4903 99.1795 17.4936H101.609C102.072 17.4878 102.534 17.5308 102.987 17.6218C103.335 17.686 103.667 17.8143 103.968 18C104.22 18.1565 104.426 18.3779 104.564 18.641C104.705 18.9256 104.776 19.2401 104.769 19.5577L104.756 19.5513ZM102.647 19.9359C102.65 19.8036 102.624 19.6722 102.571 19.5513C102.518 19.4397 102.439 19.3428 102.34 19.2692C102.22 19.1843 102.085 19.1233 101.942 19.0897C101.745 19.0446 101.542 19.0231 101.34 19.0256H100.224L99.7051 21.641H100.853C101.141 21.6513 101.428 21.5965 101.692 21.4808C101.904 21.3885 102.09 21.248 102.237 21.0705C102.385 20.9103 102.497 20.7201 102.564 20.5128C102.626 20.3267 102.659 20.132 102.66 19.9359H102.647ZM102.301 24.2179C102.306 24.0665 102.275 23.9159 102.211 23.7788C102.146 23.6417 102.05 23.522 101.929 23.4295C101.58 23.2098 101.168 23.1087 100.756 23.141H99.3974L98.8269 26.0128H100.269C100.586 26.0197 100.902 25.9652 101.199 25.8526C101.439 25.7649 101.657 25.6273 101.84 25.4487C102 25.2876 102.123 25.0927 102.199 24.8782C102.275 24.6728 102.316 24.4561 102.321 24.2372L102.301 24.2179ZM113.288 17.8077C113.288 17.8397 113.288 17.891 113.288 17.9744C113.288 18.0577 113.288 18.1346 113.25 18.2308C113.237 18.3328 113.216 18.4336 113.186 18.5321C113.163 18.6309 113.13 18.7274 113.09 18.8205C113.056 18.8989 113.008 18.9705 112.949 19.0321C112.928 19.0587 112.902 19.0806 112.872 19.0961C112.842 19.1116 112.809 19.1204 112.776 19.1218H109.179L108.686 21.5769H111.737C111.768 21.573 111.798 21.5782 111.826 21.5919C111.853 21.6056 111.876 21.6272 111.891 21.6538C111.928 21.7202 111.946 21.7958 111.942 21.8718C111.947 21.9272 111.947 21.983 111.942 22.0385C111.934 22.1245 111.921 22.2101 111.904 22.2949C111.891 22.3922 111.872 22.4885 111.846 22.5833C111.823 22.678 111.791 22.7703 111.75 22.859C111.715 22.9331 111.667 23.0004 111.609 23.0577C111.588 23.0815 111.563 23.1007 111.534 23.114C111.505 23.1272 111.474 23.1343 111.442 23.1346H108.391L107.821 25.9744H111.468C111.496 25.9732 111.524 25.9805 111.548 25.9954C111.572 26.0102 111.591 26.0319 111.603 26.0577C111.64 26.1309 111.658 26.2127 111.654 26.2949C111.654 26.3333 111.654 26.391 111.654 26.468C111.662 26.5554 111.662 26.6434 111.654 26.7308C111.654 26.8269 111.615 26.9231 111.59 27.0192C111.565 27.1157 111.533 27.2101 111.494 27.3013C111.461 27.3769 111.415 27.4463 111.359 27.5064C111.311 27.5542 111.247 27.5817 111.179 27.5833H106.115C106.041 27.5965 105.965 27.5965 105.891 27.5833C105.824 27.5604 105.765 27.5206 105.718 27.4679C105.673 27.4072 105.642 27.3371 105.628 27.2628C105.61 27.1676 105.61 27.0696 105.628 26.9744L107.378 18.1859C107.405 18.0053 107.496 17.8406 107.635 17.7226C107.775 17.6046 107.952 17.5414 108.135 17.5449H113.141C113.276 17.5449 113.34 17.6474 113.34 17.8462L113.288 17.8077ZM118.994 26.2051C118.994 26.2436 118.994 26.3013 118.994 26.3846C118.994 26.468 118.994 26.5577 118.949 26.6603C118.933 26.766 118.911 26.8709 118.885 26.9744C118.856 27.0767 118.822 27.1773 118.782 27.2756C118.75 27.3587 118.702 27.4348 118.641 27.5C118.62 27.5262 118.594 27.5473 118.564 27.5618C118.534 27.5762 118.501 27.5836 118.468 27.5833H113.846C113.77 27.5973 113.692 27.5973 113.615 27.5833C113.549 27.5604 113.489 27.5206 113.442 27.4679C113.395 27.4087 113.364 27.3379 113.353 27.2628C113.334 27.1676 113.334 27.0696 113.353 26.9744L115.186 17.8141C115.19 17.7598 115.216 17.7092 115.256 17.6731C115.311 17.6234 115.377 17.5881 115.449 17.5705C115.556 17.5412 115.665 17.5219 115.776 17.5128C115.91 17.5128 116.083 17.5128 116.282 17.5128C116.481 17.5128 116.641 17.5128 116.769 17.5128C116.872 17.5203 116.973 17.5396 117.071 17.5705C117.129 17.5889 117.18 17.6247 117.218 17.6731C117.231 17.7192 117.231 17.768 117.218 17.8141L115.603 25.9295H118.808C118.839 25.927 118.87 25.9335 118.897 25.9483C118.924 25.9631 118.947 25.9855 118.962 26.0128C118.985 26.0786 118.996 26.1482 118.994 26.218V26.2051Z" fill="#4EABE9"/>
</g>
<defs>
<clipPath id="clip0_7862_1281">
<rect width="118.994" height="32" fill="white"/>
</clipPath>
</defs>
</svg>
